<?xml version="1.0" standalone="no"?><!DOCTYPE svg PUBLIC "-//W3C//DTD SVG 1.1//EN" "http://www.w3.org/Graphics/SVG/1.1/DTD/svg11.dtd"><svg t="1611379359369" class="icon" viewBox="0 0 1024 1024" version="1.1" xmlns="http://www.w3.org/2000/svg" p-id="11973" xmlns:xlink="http://www.w3.org/1999/xlink" width="200" height="200"><defs><style type="text/css"></style></defs><path d="M288 288v448h448V288H288z m0-32h448a32 32 0 0 1 32 32v448a32 32 0 0 1-32 32H288a32 32 0 0 1-32-32V288a32 32 0 0 1 32-32zM128 128.032V304H96V96.032h208v32H128zM128 720v175.968h176v32H96V720h32z m768-416V128.032h-176v-32H928V304h-32z m0 416h32v207.968h-208v-32H896V720z" p-id="11974" fill="#515151"></path></svg>