<?xml version="1.0" standalone="no"?><!DOCTYPE svg PUBLIC "-//W3C//DTD SVG 1.1//EN" "http://www.w3.org/Graphics/SVG/1.1/DTD/svg11.dtd"><svg t="1611377436373" class="icon" viewBox="0 0 1024 1024" version="1.1" xmlns="http://www.w3.org/2000/svg" p-id="564" xmlns:xlink="http://www.w3.org/1999/xlink" width="200" height="200"><defs><style type="text/css"></style></defs><path d="M492.864 337.6h-113.472a49.664 49.664 0 0 1-49.664-49.6v-28.032a106.496 106.496 0 0 1 212.864 0v28.032a49.92 49.92 0 0 1-49.728 49.6z m-56.832-139.008c-33.856 0-61.44 27.52-61.44 61.44v27.968c0 2.496 2.176 4.608 4.672 4.608H492.8a4.736 4.736 0 0 0 4.608-4.608v-28.032c0-33.856-27.52-61.44-61.44-61.44z m472.896 464.512H114.88a67.776 67.776 0 0 1-67.648-67.648c0-37.248 30.4-67.584 67.648-67.584h794.048c37.184 0 67.584 30.336 67.584 67.584 0 37.248-30.4 67.648-67.584 67.648zM114.88 572.8a22.592 22.592 0 0 0 0 45.248h794.048a22.592 22.592 0 0 0 0-45.248H114.88z m328.32-144.576a22.592 22.592 0 0 1-22.528-22.464v-27.52c0-12.352 10.112-22.4 22.464-22.4 12.416 0 22.528 10.048 22.528 22.4v27.52a22.4 22.4 0 0 1-22.528 22.464z m62.976 0a22.592 22.592 0 0 1-22.528-22.464v-27.52a22.592 22.592 0 0 1 44.992 0v27.52a22.464 22.464 0 0 1-22.464 22.464z m-125.888 0a22.592 22.592 0 0 1-22.528-22.464v-27.52a22.592 22.592 0 0 1 44.992 0v27.52a22.4 22.4 0 0 1-22.464 22.464z m-186.24 550.784a22.528 22.528 0 0 1-15.872-38.464l47.872-47.808a22.528 22.528 0 0 1 31.808 31.872l-47.808 47.808a22.208 22.208 0 0 1-16 6.592z m635.648 0a22.4 22.4 0 0 1-15.872-6.592l-47.808-47.808a22.528 22.528 0 0 1 31.872-31.872l47.808 47.808a22.528 22.528 0 0 1-16 38.464z m-102.464-47.424h-430.72a190.016 190.016 0 0 1-135.04-56.192 189.824 189.824 0 0 1-56.128-135.04v-85.184c0-19.84 16.192-36.032 35.968-36.032h741.12c19.84 0 36.032 16.192 36.032 36.032v85.12c0 50.88-19.904 98.88-56.128 135.104a190.016 190.016 0 0 1-135.104 56.192z m-576.896-267.456v76.16a146.368 146.368 0 0 0 146.24 146.304h430.656a146.368 146.368 0 0 0 146.24-146.304v-76.16h-723.2z m69.12-108.544h-44.928v-363.392c0-77.824 63.36-141.184 141.184-141.184s141.184 63.36 141.184 141.184h-44.992c0-52.992-43.2-96.192-96.192-96.192-52.992 0-96.192 43.2-96.192 96.192v363.392z" p-id="565" fill="#515151"></path></svg>