<?xml version="1.0" standalone="no"?><!DOCTYPE svg PUBLIC "-//W3C//DTD SVG 1.1//EN" "http://www.w3.org/Graphics/SVG/1.1/DTD/svg11.dtd"><svg t="1611377537497" class="icon" viewBox="0 0 1024 1024" version="1.1" xmlns="http://www.w3.org/2000/svg" p-id="5191" xmlns:xlink="http://www.w3.org/1999/xlink" width="200" height="200"><defs><style type="text/css"></style></defs><path d="M674.909091 692.596364a218.763636 218.763636 0 0 1-142.429091 40.96H414.254545V930.909091H296.96V372.363636H539.927273a198.283636 198.283636 0 0 1 134.050909 42.821819c35.84 34.629818 54.272 83.502545 50.269091 133.12a171.287273 171.287273 0 0 1-49.338182 144.290909z m-93.090909-201.076364a93.090909 93.090909 0 0 0-63.301818-18.618182H414.254545v163.84H521.309091a93.090909 93.090909 0 0 0 63.301818-20.48 80.989091 80.989091 0 0 0 22.341818-63.301818 76.334545 76.334545 0 0 0-22.341818-61.44h-2.792727z m387.258182-186.181818a46.545455 46.545455 0 0 0-17.687273-63.301818L532.48 9.309091a46.545455 46.545455 0 0 0-45.614545 0L67.956364 242.036364a46.545455 46.545455 0 0 0 45.614545 80.989091l398.429091-223.418182 396.567273 220.625454a46.545455 46.545455 0 0 0 63.208727-18.432l0.093091-0.186182-2.792727 3.723637z" p-id="5192" fill="#515151"></path></svg>