<?xml version="1.0" standalone="no"?><svg xmlns="http://www.w3.org/2000/svg" viewBox="0 0 1440 320"><path fill="#111827" fill-opacity="1" d="M0,128L26.7,138.7C53.3,149,107,171,160,197.3C213.3,224,267,256,320,229.3C373.3,203,427,117,480,117.3C533.3,117,587,203,640,245.3C693.3,288,747,288,800,272C853.3,256,907,224,960,192C1013.3,160,1067,128,1120,144C1173.3,160,1227,224,1280,229.3C1333.3,235,1387,181,1413,154.7L1440,128L1440,320L1413.3,320C1386.7,320,1333,320,1280,320C1226.7,320,1173,320,1120,320C1066.7,320,1013,320,960,320C906.7,320,853,320,800,320C746.7,320,693,320,640,320C586.7,320,533,320,480,320C426.7,320,373,320,320,320C266.7,320,213,320,160,320C106.7,320,53,320,27,320L0,320Z"></path></svg>